<?xml version="1.0" encoding="iso-8859-1"?>
<!-- Uploaded to: SVG Repo, www.svgrepo.com, Generator: SVG Repo Mixer Tools -->
<svg height="800px" width="800px" version="1.1" id="Layer_1" xmlns="http://www.w3.org/2000/svg" xmlns:xlink="http://www.w3.org/1999/xlink" 
	 viewBox="0 0 512 512" xml:space="preserve">
<g transform="translate(1)">
	<polygon style="fill:#FFE100;" points="255,8.533 7.533,8.533 7.533,128 195.267,128 195.267,503.467 314.733,503.467 314.733,128 
		502.467,128 502.467,8.533 	"/>
	<polygon style="fill:#FFA800;" points="476.867,128 502.467,128 502.467,8.533 476.867,8.533 	"/>
	<polygon style="fill:#FFFFFF;" points="7.533,128 33.133,128 33.133,8.533 7.533,8.533 	"/>
	<g>
		<path style="fill:#00DA6C;" d="M61.293,200.533c-22.187,26.453-7.68,69.12,26.453,72.533c1.707,0,3.413,0,5.12,0h0.853
			c36.693-0.853,54.613-45.227,30.72-72.533l-20.48-24.747c-5.973-6.827-16.213-6.827-22.187,0L61.293,200.533z"/>
		<path style="fill:#00DA6C;" d="M61.293,388.267c-22.187,26.453-7.68,69.12,26.453,72.533c1.707,0,3.413,0,5.12,0h0.853
			c36.693-0.853,54.613-45.227,30.72-72.533l-20.48-24.747c-5.973-6.827-16.213-6.827-22.187,0L61.293,388.267z"/>
		<path style="fill:#00DA6C;" d="M385.56,388.267c-22.187,26.453-7.68,69.12,26.453,72.533c1.707,0,3.413,0,5.12,0h0.853
			c36.693-0.853,54.613-45.227,30.72-72.533l-20.48-24.747c-5.973-6.827-16.213-6.827-22.187,0L385.56,388.267z"/>
		<path style="fill:#00DA6C;" d="M385.56,200.533c-22.187,26.453-7.68,69.12,26.453,72.533c1.707,0,3.413,0,5.12,0h0.853
			c36.693-0.853,54.613-45.227,30.72-72.533l-20.48-24.747c-5.973-6.827-16.213-6.827-22.187,0L385.56,200.533z"/>
	</g>
	<g>
		<path style="fill:#00AD55;" d="M449.56,200.533l-20.48-24.747c-5.973-6.827-16.213-6.827-22.187,0l-1.707,1.707l18.773,22.187
			c21.333,24.747,8.533,62.293-19.627,70.827c2.56,0.853,5.12,1.707,7.68,1.707c1.707,0,3.413,0,5.12,0h0.853
			C454.68,272.213,472.6,227.84,449.56,200.533"/>
		<path style="fill:#00AD55;" d="M449.56,388.267l-20.48-24.747c-5.973-6.827-16.213-6.827-22.187,0l-1.707,1.707l18.773,22.187
			c21.333,24.747,8.533,62.293-19.627,70.827c2.56,0.853,5.12,1.707,7.68,1.707c1.707,0,3.413,0,5.12,0h0.853
			C454.68,459.947,472.6,415.573,449.56,388.267"/>
		<path style="fill:#00AD55;" d="M125.293,200.533l-20.48-24.747c-5.973-6.827-16.213-6.827-22.187,0l-1.707,1.707l18.773,22.187
			c21.333,24.747,8.533,62.293-19.627,70.827c2.56,0.853,5.12,1.707,7.68,1.707c1.707,0,3.413,0,5.12,0h0.853
			C130.413,272.213,148.333,227.84,125.293,200.533"/>
		<path style="fill:#00AD55;" d="M125.293,388.267l-20.48-24.747c-5.973-6.827-16.213-6.827-22.187,0l-1.707,1.707l18.773,22.187
			c21.333,24.747,8.533,62.293-19.627,70.827c2.56,0.853,5.12,1.707,7.68,1.707c1.707,0,3.413,0,5.12,0h0.853
			C130.413,459.947,148.333,415.573,125.293,388.267"/>
	</g>
	<path d="M67.267,76.8H50.2c-5.12,0-8.533-3.413-8.533-8.533s3.413-8.533,8.533-8.533h17.067c5.12,0,8.533,3.413,8.533,8.533
		S72.387,76.8,67.267,76.8z"/>
	<path d="M394.093,76.8h-32.427c-5.12,0-8.533-3.413-8.533-8.533s3.413-8.533,8.533-8.533h32.427c5.12,0,8.533,3.413,8.533,8.533
		S398.36,76.8,394.093,76.8z M312.173,76.8h-32.427c-5.12,0-8.533-3.413-8.533-8.533s3.413-8.533,8.533-8.533h32.427
		c5.12,0,8.533,3.413,8.533,8.533S316.44,76.8,312.173,76.8z M230.253,76.8h-32.427c-5.12,0-8.533-3.413-8.533-8.533
		s3.413-8.533,8.533-8.533h32.427c5.12,0,8.533,3.413,8.533,8.533S235.373,76.8,230.253,76.8z M149.187,76.8H116.76
		c-5.12,0-8.533-3.413-8.533-8.533s3.413-8.533,8.533-8.533h32.427c5.12,0,8.533,3.413,8.533,8.533S153.453,76.8,149.187,76.8z"/>
	<path d="M459.8,76.8h-17.067c-5.12,0-8.533-3.413-8.533-8.533s3.413-8.533,8.533-8.533H459.8c5.12,0,8.533,3.413,8.533,8.533
		S464.92,76.8,459.8,76.8z"/>
	<path d="M417.133,281.6c-1.707,0-4.267,0-5.973,0c-18.773-1.707-34.133-13.653-40.96-31.573
		c-7.68-18.773-4.267-39.253,8.533-54.613l21.333-24.747c8.533-10.24,26.453-10.24,34.987,0l20.48,24.747
		c13.653,16.213,16.213,37.547,7.68,56.32c-8.533,17.92-25.6,29.867-45.227,29.867H417.133z M417.133,179.2
		c-0.853,0-3.413,0-4.267,2.56l-21.333,23.893C383,215.893,380.44,230.4,385.56,243.2c5.12,11.947,14.507,19.627,27.307,21.333
		c1.707,0,2.56,0,4.267,0v8.533v-8.533c13.653,0,24.747-7.68,30.72-20.48c5.973-12.8,4.267-28.16-5.12-38.4l-20.48-24.747
		C420.547,179.2,417.987,179.2,417.133,179.2z"/>
	<path d="M417.133,324.267c-5.12,0-8.533-3.413-8.533-8.533v-76.8c0-5.12,3.413-8.533,8.533-8.533s8.533,3.413,8.533,8.533v76.8
		C425.667,320.853,422.253,324.267,417.133,324.267z"/>
	<path d="M92.867,281.6c-1.707,0-4.267,0-5.973,0c-18.773-1.707-34.133-13.653-40.96-31.573c-7.68-18.773-4.267-39.253,8.533-54.613
		L75.8,170.667c8.533-10.24,26.453-10.24,34.987,0l20.48,24.747c13.653,16.213,16.213,37.547,7.68,56.32
		c-8.533,17.92-25.6,29.867-45.227,29.867H92.867z M92.867,179.2c-0.853,0-3.413,0-4.267,2.56l-21.333,23.893
		c-8.533,10.24-11.093,24.747-5.973,37.547c5.12,11.947,14.507,19.627,27.307,21.333c1.707,0,2.56,0,4.267,0v8.533v-8.533
		c13.653,0,24.747-7.68,30.72-20.48c5.973-12.8,4.267-28.16-5.12-38.4l-20.48-24.747C96.28,179.2,93.72,179.2,92.867,179.2z"/>
	<path d="M92.867,324.267c-5.12,0-8.533-3.413-8.533-8.533v-76.8c0-5.12,3.413-8.533,8.533-8.533s8.533,3.413,8.533,8.533v76.8
		C101.4,320.853,97.987,324.267,92.867,324.267z"/>
	<path d="M417.133,469.333c-1.707,0-4.267,0-5.973,0c-18.773-1.707-34.133-13.653-40.96-31.573
		c-7.68-18.773-4.267-39.253,8.533-54.613l21.333-24.747c4.267-5.12,11.093-8.533,17.92-8.533l0,0c6.827,0,12.8,2.56,17.92,8.533
		l20.48,24.747c13.653,16.213,16.213,37.547,7.68,56.32c-8.533,17.92-25.6,29.867-45.227,29.867H417.133z M417.133,366.933
		c-0.853,0-3.413,0-4.267,2.56l-21.333,23.893c-8.533,10.24-11.093,24.747-5.973,37.547c5.12,11.947,14.507,19.627,27.307,21.333
		c1.707,0,2.56,0,4.267,0v8.533v-8.533c13.653,0,24.747-7.68,30.72-20.48c5.973-12.8,4.267-28.16-5.12-38.4l-20.48-24.747
		C420.547,366.933,417.987,366.933,417.133,366.933z"/>
	<path d="M417.133,512c-5.12,0-8.533-3.413-8.533-8.533v-76.8c0-5.12,3.413-8.533,8.533-8.533s8.533,3.413,8.533,8.533v76.8
		C425.667,508.587,422.253,512,417.133,512z"/>
	<path d="M92.867,469.333c-1.707,0-4.267,0-5.973,0c-18.773-1.707-34.133-13.653-40.96-31.573
		c-7.68-18.773-4.267-39.253,8.533-54.613L75.8,358.4c8.533-10.24,26.453-10.24,34.987,0l20.48,24.747
		c13.653,16.213,16.213,37.547,7.68,56.32c-8.533,17.92-25.6,29.867-45.227,29.867H92.867z M92.867,366.933
		c-0.853,0-3.413,0-4.267,2.56l-21.333,23.893c-8.533,10.24-11.093,24.747-5.973,37.547C66.413,442.88,75.8,450.56,88.6,452.267
		c1.707,0,2.56,0,4.267,0v8.533v-8.533c13.653,0,24.747-7.68,30.72-20.48c5.973-12.8,4.267-28.16-5.12-38.4l-20.48-24.747
		C96.28,366.933,93.72,366.933,92.867,366.933z"/>
	<path d="M92.867,512c-5.12,0-8.533-3.413-8.533-8.533v-76.8c0-5.12,3.413-8.533,8.533-8.533s8.533,3.413,8.533,8.533v76.8
		C101.4,508.587,97.987,512,92.867,512z"/>
	<path d="M255,512c-5.12,0-8.533-3.413-8.533-8.533V486.4c0-5.12,3.413-8.533,8.533-8.533s8.533,3.413,8.533,8.533v17.067
		C263.533,508.587,260.12,512,255,512z"/>
	<path d="M255,437.76c-5.12,0-8.533-3.413-8.533-8.533V391.68c0-5.12,3.413-8.533,8.533-8.533s8.533,3.413,8.533,8.533v37.547
		C263.533,434.347,260.12,437.76,255,437.76z M255,343.04c-5.12,0-8.533-3.413-8.533-8.533V296.96c0-5.12,3.413-8.533,8.533-8.533
		s8.533,3.413,8.533,8.533v37.547C263.533,339.627,260.12,343.04,255,343.04z M255,248.32c-5.12,0-8.533-3.413-8.533-8.533V202.24
		c0-5.12,3.413-8.533,8.533-8.533s8.533,3.413,8.533,8.533v37.547C263.533,244.907,260.12,248.32,255,248.32z"/>
	<path d="M255,153.6c-5.12,0-8.533-3.413-8.533-8.533V128c0-5.12,3.413-8.533,8.533-8.533s8.533,3.413,8.533,8.533v17.067
		C263.533,150.187,260.12,153.6,255,153.6z"/>
	<path d="M314.733,512H195.267c-5.12,0-8.533-3.413-8.533-8.533V136.533H7.533C2.413,136.533-1,133.12-1,128V8.533
		C-1,3.413,2.413,0,7.533,0h494.933C507.587,0,511,3.413,511,8.533V128c0,5.12-3.413,8.533-8.533,8.533h-179.2v366.933
		C323.267,508.587,319.853,512,314.733,512z M203.8,494.933h102.4V128c0-5.12,3.413-8.533,8.533-8.533h179.2v-102.4H16.067v102.4
		h179.2c5.12,0,8.533,3.413,8.533,8.533V494.933z"/>
</g>
</svg>
